<?xml version="1.0" encoding="UTF-8"?>
<svg width="24px" height="24px" viewBox="0 0 24 24" version="1.1" xmlns="http://www.w3.org/2000/svg" xmlns:xlink="http://www.w3.org/1999/xlink">
    <title>icon/arrow-left-thin</title>
    <defs>
        <path d="M11.6655176,2.62835293 C11.8707726,2.44362342 12.1869176,2.46026262 12.3716471,2.66551763 C12.5563766,2.87077264 12.5397374,3.18691756 12.3344824,3.37164707 L3.3019957,11.4999957 L22,11.5 C22.2454599,11.5 22.4496084,11.6768752 22.4919443,11.9101244 L22.5,12 C22.5,12.2761424 22.2761424,12.5 22,12.5 L3.3029957,12.4999957 L12.3344824,20.6283529 C12.5397374,20.8130824 12.5563766,21.1292274 12.3716471,21.3344824 C12.1869176,21.5397374 11.8707726,21.5563766 11.6655176,21.3716471 L1.66551763,12.3716471 L1.65252966,12.3595342 C1.64844051,12.3555814 1.64441861,12.3515595 1.64046584,12.3474703 L1.62835293,12.3344824 C1.62251779,12.3279162 1.62003956,12.325044 1.61759373,12.3221436 L1.6089957,12.3099957 L1.5877646,12.2830521 C1.58305802,12.2762159 1.57854229,12.2692926 1.57421703,12.2622894 L1.56826466,12.2523596 L1.562906,12.243074 C1.55651562,12.2315848 1.55060854,12.2198894 1.5451864,12.2080186 C1.53922108,12.1950183 1.53377454,12.1815995 1.52893726,12.1680215 C1.52368022,12.1530913 1.51923433,12.1384359 1.51547198,12.1236344 C1.51287774,12.1136344 1.51063436,12.1034969 1.50871039,12.0933147 C1.50302991,12.0635451 1.5,12.0321264 1.5,12 L1.50705351,12.0838077 C1.50458285,12.0692176 1.5027593,12.0545323 1.5015853,12.0397986 C1.50093016,12.0317571 1.50050509,12.0240644 1.50025693,12.0163688 L1.5,12 C1.50011533,11.983296 1.50067508,11.9709128 1.50169361,11.9585557 C1.50295397,11.9438008 1.50477992,11.9294494 1.5072243,11.9151899 C1.51068118,11.8961331 1.51324861,11.884646 1.51622755,11.8732387 C1.51973966,11.8599584 1.52381028,11.8466366 1.52844428,11.8334769 L1.53221816,11.8230411 C1.53594141,11.8131916 1.53998894,11.8034316 1.54436159,11.793777 C1.55010933,11.7810649 1.55650973,11.768359 1.56347989,11.7558971 L1.57129019,11.74251 C1.57522285,11.7359786 1.57931942,11.7295146 1.5835802,11.7231238 L1.58923355,11.7147223 C1.61079915,11.6837274 1.63623952,11.6547032 1.66551763,11.6283529 L1.60832165,11.6891823 C1.61371961,11.6823891 1.61929056,11.6757396 1.62502785,11.6692404 L1.64046584,11.6525297 C1.64441861,11.6484405 1.64844051,11.6444186 1.65252966,11.6404658 L1.66551763,11.6283529 Z" id="path-1"></path>
    </defs>
    <g id="icon/arrow-left-thin" stroke="none" stroke-width="1" fill="none" fill-rule="evenodd">
        <mask id="mask-2" fill="white">
            <use xlink:href="#path-1"></use>
        </mask>
        <use id="Mask" fill="#000000" fill-rule="nonzero" xlink:href="#path-1"></use>
        <g id="colour/black" mask="url(#mask-2)" fill="#000000">
            <g transform="translate(0.000000, 0.000000)" id="Rectangle">
                <rect x="0" y="0" width="24" height="24"></rect>
            </g>
        </g>
    </g>
</svg>