<?xml version="1.0" encoding="UTF-8"?>
<svg width="24px" height="24px" viewBox="0 0 24 24" version="1.1" xmlns="http://www.w3.org/2000/svg" xmlns:xlink="http://www.w3.org/1999/xlink">
    <title>icon/arrow-right-thin</title>
    <defs>
        <path d="M12.3344824,2.62835293 L22.3344824,11.6283529 L22.3474703,11.6404658 C22.3515595,11.6444186 22.3555814,11.6484405 22.3595342,11.6525297 L22.3716471,11.6655176 C22.3807094,11.6757396 22.3862804,11.6823891 22.3916783,11.6891823 L22.3344824,11.6283529 C22.3637605,11.6547032 22.3892008,11.6837274 22.4107664,11.7147223 C22.4124941,11.7173228 22.414331,11.7200169 22.4161421,11.7227297 C22.4206806,11.7295146 22.4247771,11.7359786 22.4287098,11.74251 C22.4313613,11.7469466 22.4340468,11.7515707 22.4366595,11.7562411 C22.4388208,11.7600105 22.4410595,11.7641506 22.443236,11.7683158 L22.4556384,11.793777 C22.4600111,11.8034316 22.4640586,11.8131916 22.4677818,11.8230411 C22.4691615,11.8266925 22.4703539,11.8299543 22.4715131,11.8332317 C22.4732429,11.8382681 22.4748554,11.8430809 22.4763931,11.8479133 L22.4837725,11.8732387 C22.4867514,11.884646 22.4893188,11.8961331 22.491476,11.907677 C22.4937953,11.921205 22.4945678,11.926229 22.4952638,11.9312624 L22.4988352,11.9655718 C22.4993376,11.9729246 22.499678,11.9802847 22.4998565,11.9876465 C22.4999423,11.9911496 22.5,11.9955681 22.5,12 L22.4998565,12.0123535 C22.4996212,12.0220576 22.4991047,12.031759 22.4983064,12.0414443 C22.4971025,12.0555244 22.4953898,12.0692056 22.4931152,12.082805 L22.5,12 C22.5,12.0321264 22.4969701,12.0635451 22.4911805,12.0939859 C22.4893656,12.1034969 22.4871223,12.1136344 22.4845586,12.1237113 C22.4807657,12.1384359 22.4763198,12.1530913 22.471193,12.1675495 C22.4691709,12.1733317 22.4671859,12.1786175 22.4651076,12.1838766 L22.4548136,12.2080186 C22.4493915,12.2198894 22.4434844,12.2315848 22.437094,12.243074 C22.4354102,12.2460062 22.4335897,12.249194 22.4317353,12.2523596 L22.425783,12.2622894 C22.4214577,12.2692926 22.416942,12.2762159 22.4122354,12.2830521 L22.3958974,12.3055357 C22.3862804,12.3176109 22.3807094,12.3242604 22.3749721,12.3307596 L22.3595342,12.3474703 C22.3555814,12.3515595 22.3515595,12.3555814 22.3474703,12.3595342 L22.3344824,12.3716471 L12.3344824,21.3716471 C12.1292274,21.5563766 11.8130824,21.5397374 11.6283529,21.3344824 C11.4436234,21.1292274 11.4602626,20.8130824 11.6655176,20.6283529 L20.696,12.4999957 L2,12.5 C1.72385763,12.5 1.5,12.2761424 1.5,12 C1.5,11.7238576 1.72385763,11.5 2,11.5 L20.697,11.4999957 L11.6655176,3.37164707 C11.4602626,3.18691756 11.4436234,2.87077264 11.6283529,2.66551763 C11.8130824,2.46026262 12.1292274,2.44362342 12.3344824,2.62835293 Z" id="path-1"></path>
    </defs>
    <g id="icon/arrow-right-thin" stroke="none" stroke-width="1" fill="none" fill-rule="evenodd">
        <mask id="mask-2" fill="white">
            <use xlink:href="#path-1"></use>
        </mask>
        <use id="Mask" fill="#000000" fill-rule="nonzero" xlink:href="#path-1"></use>
        <g id="colour/black" mask="url(#mask-2)" fill="#000000">
            <g transform="translate(0.000000, 0.000000)" id="Rectangle">
                <rect x="0" y="0" width="24" height="24"></rect>
            </g>
        </g>
    </g>
</svg>