<?xml version="1.0" encoding="UTF-8"?>
<svg width="24px" height="24px" viewBox="0 0 24 24" version="1.1" xmlns="http://www.w3.org/2000/svg" xmlns:xlink="http://www.w3.org/1999/xlink">
    <title>icon/copy-large</title>
    <defs>
        <path d="M17.2727273,6.49350649 C18.7789584,6.49350649 20,7.71454808 20,9.22077922 L20,17.2727273 C20,18.7789584 18.7789584,20 17.2727273,20 L9.22077922,20 C7.71454808,20 6.49350649,18.7789584 6.49350649,17.2727273 L6.49350649,9.22077922 C6.49350649,7.71454808 7.71454808,6.49350649 9.22077922,6.49350649 Z M17.2727273,8.31168831 L9.22077922,8.31168831 C8.71870218,8.31168831 8.31168831,8.71870218 8.31168831,9.22077922 L8.31168831,17.2727273 C8.31168831,17.7748043 8.71870218,18.1818182 9.22077922,18.1818182 L17.2727273,18.1818182 C17.7748043,18.1818182 18.1818182,17.7748043 18.1818182,17.2727273 L18.1818182,9.22077922 C18.1818182,8.71870218 17.7748043,8.31168831 17.2727273,8.31168831 Z M10.7992008,0 C12.2293887,0 13.4005587,1.10898786 13.499696,2.51394892 L13.5064935,2.70729271 L13.5064935,3.60639361 C13.5064935,4.10847065 13.0994796,4.51548452 12.5974026,4.51548452 C12.1371653,4.51548452 11.7568075,4.17347981 11.6966106,3.72975186 L11.6883117,3.60639361 L11.6883117,2.70729271 C11.6883117,2.26089054 11.3593295,1.89132629 10.9305871,1.82782206 L10.7992008,1.81818182 L2.70729271,1.81818182 C2.26089054,1.81818182 1.89132629,2.14716405 1.82782206,2.57590642 L1.81818182,2.70729271 L1.81818182,10.7992008 C1.81818182,11.245603 2.14716405,11.6151672 2.57590642,11.6786714 L2.70729271,11.6883117 L3.60639361,11.6883117 C4.10847065,11.6883117 4.51548452,12.0953256 4.51548452,12.5974026 C4.51548452,13.0576399 4.17347981,13.4379977 3.72975186,13.4981946 L3.60639361,13.5064935 L2.70729271,13.5064935 C1.27710477,13.5064935 0.105934833,12.3975056 0.00679753793,10.9925446 L0,10.7992008 L0,2.70729271 C0,1.27710477 1.10898786,0.105934833 2.51394892,0.00679753793 L2.70729271,0 L10.7992008,0 Z" id="path-1"></path>
    </defs>
    <g id="icon/copy-large" stroke="none" stroke-width="1" fill="none" fill-rule="evenodd">
        <g id="colour/primary" transform="translate(2.000000, 2.000000)">
            <mask id="mask-2" fill="white">
                <use xlink:href="#path-1"></use>
            </mask>
            <use id="Mask" fill="#000000" fill-rule="nonzero" xlink:href="#path-1"></use>
            <g id="colour/black" mask="url(#mask-2)" fill="#000000">
                <g transform="translate(-4.777778, -4.777778)" id="Rectangle">
                    <rect x="0" y="0" width="26.6666667" height="26.6666667"></rect>
                </g>
            </g>
        </g>
    </g>
</svg>