<?xml version="1.0" encoding="UTF-8"?>
<svg width="24px" height="24px" viewBox="0 0 24 24" version="1.1" xmlns="http://www.w3.org/2000/svg" xmlns:xlink="http://www.w3.org/1999/xlink">
    <title>icon/display-grid-active</title>
    <defs>
        <path d="M22,21 C22,21.5522847 21.5522847,22 21,22 L3,22 C2.44771525,22 2,21.5522847 2,21 L2,3 C2,2.44771525 2.44771525,2 3,2 L21,2 C21.5522847,2 22,2.44771525 22,3 L22,21 Z M8,15.999 L4,15.999 L4,20 L8,20 L8,15.999 Z M14,15.999 L10,15.999 L10,20 L14,20 L14,15.999 Z M20,15.999 L16,15.999 L16,20 L20,20 L20,15.999 Z M8,9.999 L4,9.999 L4,13.999 L8,13.999 L8,9.999 Z M14,9.999 L10,9.999 L10,13.999 L14,13.999 L14,9.999 Z M20,9.999 L16,9.999 L16,13.999 L20,13.999 L20,9.999 Z M8,4 L4,4 L4,7.999 L8,7.999 L8,4 Z M14,4 L10,4 L10,7.999 L14,7.999 L14,4 Z M20,4 L16,4 L16,7.999 L20,7.999 L20,4 Z" id="path-1"></path>
    </defs>
    <g id="icon/display-grid-active" stroke="none" stroke-width="1" fill="none" fill-rule="evenodd">
        <mask id="mask-2" fill="white">
            <use xlink:href="#path-1"></use>
        </mask>
        <use id="Mask" fill="#000000" fill-rule="nonzero" xlink:href="#path-1"></use>
        <g id="colour/black" mask="url(#mask-2)" fill="#000000">
            <rect id="Rectangle" x="0" y="0" width="24" height="24"></rect>
        </g>
    </g>
</svg>