<?xml version="1.0" encoding="UTF-8"?>
<svg width="24px" height="24px" viewBox="0 0 24 24" version="1.1" xmlns="http://www.w3.org/2000/svg" xmlns:xlink="http://www.w3.org/1999/xlink">
    <title>icon/external-link-white</title>
    <g id="icon/external-link-white" stroke="none" stroke-width="1" fill="none" fill-rule="evenodd">
        <path d="M9,2.11662113 C9.55228475,2.11662113 10,2.56433638 10,3.11662113 C10,3.66890588 9.55228475,4.11662113 9,4.11662113 L5,4.11662113 C4.44771525,4.11662113 4,4.56433638 4,5.11662113 L4,19 C4,19.5522847 4.44771525,20 5,20 L19,20 C19.5522847,20 20,19.5522847 20,19 L20,15 C20,14.4477153 20.4477153,14 21,14 C21.5522847,14 22,14.4477153 22,15 L22,19 C22,20.6568542 20.6568542,22 19,22 L5,22 C3.34314575,22 2,20.6568542 2,19 L2,5.11662113 C2,3.45976688 3.34314575,2.11662113 5,2.11662113 L9,2.11662113 Z M21,2 L21.0193545,2.00018615 C21.042681,2.00063489 21.0659949,2.00189498 21.0892501,2.00396641 L21,2 C21.0506203,2 21.1003621,2.00376119 21.1489612,2.01101934 C21.165949,2.01362808 21.1833753,2.01670217 21.2007258,2.02024007 C21.2227461,2.0246398 21.2444365,2.02983363 21.2658396,2.03572097 C21.2814633,2.04009773 21.2968513,2.04472872 21.3121425,2.04973809 C21.3317977,2.05612249 21.3515792,2.06331574 21.3710585,2.07110396 C21.3887956,2.07819642 21.4060985,2.08567905 21.4232215,2.09367336 C21.4438914,2.10337664 21.4642939,2.11379392 21.484277,2.12487577 C21.4963944,2.13149883 21.5086131,2.13860692 21.5207088,2.14599545 C21.5455701,2.16128801 21.5697622,2.17756792 21.5931738,2.19484452 C21.6013013,2.20076012 21.6091971,2.20677729 21.6170223,2.21292769 C21.6801818,2.26255171 21.7374483,2.31981825 21.787214,2.38324992 L21.7071068,2.29289322 C21.7425008,2.32828727 21.774687,2.36567442 21.8036654,2.40469339 C21.8215099,2.42886931 21.8382813,2.45372505 21.8539326,2.47933981 C21.8613931,2.49138689 21.8685012,2.50360556 21.8753288,2.5159379 C21.8862061,2.53570605 21.8966234,2.5561086 21.9063462,2.57690085 C21.914321,2.5939015 21.9218036,2.61120435 21.9287745,2.62866398 C21.9366843,2.6484208 21.9438775,2.66820232 21.9504533,2.68826359 C21.9552713,2.70314866 21.9599023,2.71853672 21.9641549,2.73400703 C21.9701664,2.75556352 21.9753602,2.77725392 21.9798348,2.7992059 C21.9832978,2.81662474 21.9863719,2.83405099 21.9889822,2.85153313 C21.9920328,2.87147534 21.9944666,2.89211395 21.9962623,2.91293499 C21.9978436,2.93173451 21.9989053,2.94973363 21.9994829,2.96774538 C21.9998183,2.97778921 22,2.98887338 22,3 L22,9 C22,9.55228475 21.5522847,10 21,10 C20.4477153,10 20,9.55228475 20,9 L20,5.414 L10.7071068,14.7071068 C10.3165825,15.0976311 9.68341751,15.0976311 9.29289322,14.7071068 C8.90236893,14.3165825 8.90236893,13.6834175 9.29289322,13.2928932 L18.584,4 L15,4 C14.4871642,4 14.0644928,3.61395981 14.0067277,3.11662113 L14,3 C14,2.44771525 14.4477153,2 15,2 L21,2 Z" id="Combined-Shape" fill="#FFFFFF" fill-rule="nonzero"></path>
    </g>
</svg>