<?xml version="1.0" encoding="UTF-8"?>
<svg width="48px" height="48px" viewBox="0 0 48 48" version="1.1" xmlns="http://www.w3.org/2000/svg" xmlns:xlink="http://www.w3.org/1999/xlink">
    <title>icon/favicon-48px</title>
    <g id="icon/favicon-48px" stroke="none" stroke-width="1" fill="none" fill-rule="evenodd">
        <path d="M24,0 L25.832048,15.5985411 L33.8154495,2.09783033 L29.1793662,17.0970723 L41.9337186,8.0285874 L31.6311249,19.835025 L46.9510848,16.7667894 L32.7633929,23.3389824 L48,26.8015219 L32.3803905,27.0030783 L44.8990971,36.3976884 L30.5483426,30.1937574 L38.1845505,43.8960246 L27.5840267,32.3593222 L29.0173662,48 L24,33.1253268 L18.9826338,48 L20.4159733,32.3593222 L9.81544949,43.8960246 L17.4516574,30.1937574 L3.10090287,36.3976884 L15.6196095,27.0030783 L0,26.8015219 L15.2366071,23.3389824 L1.04891516,16.7667894 L16.3688751,19.835025 L6.0662814,8.0285874 L18.8206338,17.0970723 L14.1845505,2.09783033 L22.167952,15.5985411 L24,0 Z M24,8.27386861 L23.1265782,15.7123755 L22.7927878,18.5543548 L21.3382504,16.0945901 L17.5314982,9.65644154 L19.7424294,16.809009 L20.5871015,19.5417989 L18.2633197,17.8895645 L12.1827304,13.5658229 L17.0944532,19.1948729 L18.9715363,21.3459492 L16.1803131,20.7869314 L8.87501039,19.3225891 L15.6405088,22.4574295 L18.2254382,23.6548516 L15.4494015,24.2857096 L8.18643832,25.9356447 L15.6319963,26.0325532 L18.4778142,26.0692759 L16.196966,27.7809287 L10.2285586,32.2596757 L17.0703878,29.3020726 L19.6850264,28.1717462 L18.2937459,30.6682335 L14.6517225,37.2011337 L19.7069721,31.7006581 L21.6383367,29.5987263 L21.3771891,32.4483828 L20.6933525,39.9037294 L23.08586,32.8135725 L24,30.1034785 L24.91414,32.8135725 L27.305575,39.9037294 L26.6228109,32.4483828 L26.3616633,29.5987263 L28.2930279,31.7006581 L33.347205,37.2011337 L29.7062541,30.6682335 L28.3149736,28.1717462 L30.9296122,29.3020726 L37.7703689,32.2596757 L31.803034,27.7809287 L29.5221858,26.0692759 L32.3680037,26.0325532 L39.8124891,25.9356447 L32.5505985,24.2857096 L29.7745618,23.6548516 L32.3594912,22.4574295 L39.1239171,19.3225891 L31.8196869,20.7869314 L29.0284637,21.3459492 L30.9055468,19.1948729 L35.816197,13.5658229 L29.7366803,17.8895645 L27.4128985,19.5417989 L28.2575706,16.809009 L30.4674293,9.65644154 L26.6617496,16.0945901 L25.2072122,18.5543548 L24.8734218,15.7123755 L24,8.27386861 Z" id="Star" fill="#000000" fill-rule="nonzero"></path>
    </g>
</svg>