<?xml version="1.0" encoding="UTF-8"?>
<svg width="16px" height="16px" viewBox="0 0 16 16" version="1.1" xmlns="http://www.w3.org/2000/svg" xmlns:xlink="http://www.w3.org/1999/xlink">
    <title>icon/favicon-16px</title>
    <g id="icon/favicon-16px" stroke="none" stroke-width="1" fill="none" fill-rule="evenodd">
        <path d="M8,0 L8.60733728,5.14270277 L11.2538931,0.691636339 L9.71699769,5.63675542 L13.9451586,2.64695515 L10.5297736,6.53943452 L15.6084521,5.52786405 L10.9051287,7.69465867 L15.9561752,8.83622771 L10.7781606,8.90267911 L14.9282032,12 L10.1708234,9.95461813 L12.702282,14.472136 L9.188131,10.6685859 L9.66329353,15.8251808 L8,10.921131 L6.33670647,15.8251808 L6.811869,10.6685859 L3.29771798,14.472136 L5.82917665,9.95461813 L1.07179677,12 L5.22183937,8.90267911 L0.0438248371,8.83622771 L5.09487131,7.69465867 L0.39154787,5.52786405 L5.47022639,6.53943452 L2.0548414,2.64695515 L6.28300231,5.63675542 L4.74610686,0.691636339 L7.39266272,5.14270277 L8,0 Z M8,3.82144 L7.83757093,5.19524505 L7.68265542,6.50701111 L7.00758973,5.371663 L6.29952,4.18112 L6.71081704,5.50379471 L7.10283801,6.76516246 L6.02434714,6.00254429 L4.89216,5.20128 L5.80697461,6.24396094 L6.67814806,7.23682843 L5.38271287,6.97880383 L4.02304,6.70784 L5.28232618,7.28776228 L6.48201832,7.8404537 L5.19363133,8.13163746 L3.84256,8.43648 L5.22758825,8.45471599 L6.54836141,8.47166597 L5.48979642,9.26170977 L4.37888,10.09024 L5.6522255,9.54304518 L6.86570599,9.02132291 L6.21999852,10.173621 L5.5424,11.38176 L6.48281428,10.3645678 L7.37918031,9.39438385 L7.25797905,10.7096934 L7.13024,12.0896 L7.57573826,10.7772352 L8,9.52634315 L8.42426174,10.7772352 L8.86912,12.0896 L8.74202095,10.7096934 L8.62081969,9.39438385 L9.51718572,10.3645678 L10.45696,11.38176 L9.78000148,10.173621 L9.13429401,9.02132291 L10.3477745,9.54304518 L11.62048,10.09024 L10.5102036,9.26170977 L9.45163859,8.47166597 L10.7724117,8.45471599 L12.1568,8.43648 L10.8063687,8.13163746 L9.51798168,7.8404537 L10.7176738,7.28776228 L11.97632,6.70784 L10.6172871,6.97880383 L9.32185194,7.23682843 L10.1930254,6.24396094 L11.1072,5.20128 L9.97565286,6.00254429 L8.89716199,6.76516246 L9.28918296,5.50379471 L9.69984,4.18112 L8.99241027,5.371663 L8.31734458,6.50701111 L8.16242907,5.19524505 L8,3.82144 Z" id="Star" fill="#000000" fill-rule="nonzero"></path>
    </g>
</svg>