<?xml version="1.0" encoding="UTF-8"?>
<svg width="24px" height="24px" viewBox="0 0 24 24" version="1.1" xmlns="http://www.w3.org/2000/svg" xmlns:xlink="http://www.w3.org/1999/xlink">
    <title>icon/home</title>
    <g id="icon/home" stroke="none" stroke-width="1" fill="none" fill-rule="evenodd">
        <path d="M5,23 C3.34314575,23 2,21.6568542 2,20 L2,9 C2,8.69140957 2.14247284,8.40010398 2.38605939,8.21064778 L11.3860594,1.21064778 C11.7471699,0.929784072 12.2528301,0.929784072 12.6139406,1.21064778 L21.6139406,8.21064778 C21.8575272,8.40010398 22,8.69140957 22,9 L22,20 C22,21.6568542 20.6568542,23 19,23 L5,23 Z M12,3.266 L4,9.488 L4,20 C4,20.5128358 4.38604019,20.9355072 4.88337887,20.9932723 L5,21 L8,21 L8,12 C8,11.4477153 8.44771525,11 9,11 L15,11 C15.5522847,11 16,11.4477153 16,12 L16,21 L19,21 C19.5522847,21 20,20.5522847 20,20 L20,9.489 L12,3.266 Z M14,13 L10,13 L10,21 L14,21 L14,13 Z" id="Combined-Shape" fill="#000000" fill-rule="nonzero"></path>
    </g>
</svg>