<?xml version="1.0" encoding="UTF-8"?>
<svg width="24px" height="24px" viewBox="0 0 24 24" version="1.1" xmlns="http://www.w3.org/2000/svg" xmlns:xlink="http://www.w3.org/1999/xlink">
    <title>icon/listing</title>
    <g id="icon/listing" stroke="none" stroke-width="1" fill="none" fill-rule="evenodd">
        <path d="M12.0635591,2.78887695 C12.6158438,2.78887695 13.0635591,3.2365922 13.0635591,3.78887695 L13.063,9.556 L19.8819801,9.55606267 C20.0674352,9.55606267 20.2482815,9.60760862 20.4048497,9.70364771 L20.5174163,9.78390929 C20.9438648,10.134851 21.0050752,10.7650503 20.6541335,11.1914989 L12.7085943,20.8465593 C12.5186386,21.0773848 12.2353783,21.2111231 11.9364409,21.2111231 C11.3841562,21.2111231 10.9364409,20.7634078 10.9364409,20.2111231 L10.936,14.443 L4.11801989,14.4439373 C3.93256483,14.4439373 3.75171849,14.3923914 3.59515032,14.2963523 L3.48258368,14.2160907 C3.05613515,13.865149 2.99492479,13.2349497 3.34586651,12.8085011 L11.2914057,3.15344074 C11.4813614,2.92261523 11.7646217,2.78887695 12.0635591,2.78887695 Z" id="Combined-Shape" fill="#000000"></path>
    </g>
</svg>