<?xml version="1.0" encoding="UTF-8"?>
<svg width="104px" height="32px" viewBox="0 0 104 32" version="1.1" xmlns="http://www.w3.org/2000/svg" xmlns:xlink="http://www.w3.org/1999/xlink">
    <title>logo</title>
    <g id="logo" stroke="none" stroke-width="1" fill="none" fill-rule="evenodd">
        <g id="catalyst" transform="translate(2.733323, 2.792727)" fill="#000000" fill-rule="nonzero">
            <path d="M7.62136364,21.5221329 C6.03638406,21.5221329 4.67503718,21.1735107 3.537323,20.4762664 C2.39960882,19.7790221 1.52562644,18.813219 0.915375866,17.5788571 C0.305125289,16.3444952 0,14.9251705 0,13.3208829 C0,11.6998762 0.310302845,10.2711941 0.930908536,9.03483665 C1.55151423,7.79847923 2.42962247,6.83270308 3.56523327,6.13750821 C4.70084406,5.44231334 6.04458185,5.09471591 7.59644664,5.09471591 C8.89159091,5.09471591 10.0369096,5.33150823 11.0324028,5.80509288 C12.027896,6.27867753 12.8231633,6.94418235 13.4182048,7.80160733 C14.0132463,8.65903232 14.3535898,9.66207608 14.4392352,10.8107386 L10.8521591,10.8107386 C10.7098841,10.0417636 10.3664126,9.40079823 9.82174438,8.88784257 C9.27707619,8.37488692 8.55467219,8.11840909 7.65453236,8.11840909 C6.88415505,8.11840909 6.21004794,8.32378551 5.63221103,8.73453835 C5.05437411,9.14529119 4.60495139,9.73415738 4.28394287,10.5011369 C3.96293435,11.2681165 3.80243009,12.1859193 3.80243009,13.2545455 C3.80243009,14.3397829 3.96085793,15.271042 4.27771362,16.0483228 C4.59456931,16.8256035 5.04191562,17.4227214 5.61975253,17.8396765 C6.19758944,18.2566316 6.87584939,18.4651092 7.65453236,18.4651092 C8.20400058,18.4651092 8.69896962,18.3595086 9.13943948,18.1483074 C9.57990934,17.9371063 9.94854059,17.6306057 10.2453333,17.2288057 C10.5421259,16.8270057 10.7444012,16.3416637 10.8521591,15.7727797 L14.4392352,15.7727797 C14.3480886,16.8967409 14.0156733,17.8912094 13.4419892,18.756185 C12.8683051,19.6211606 12.0882199,20.2983958 11.1017335,20.7878906 C10.1152471,21.2773855 8.95512385,21.5221329 7.62136364,21.5221329 Z" id="Path"></path>
            <path d="M22.3016985,5.09471591 C23.063878,5.09471591 23.82568,5.18410966 24.5871045,5.36289717 C25.3485289,5.54168468 26.0436968,5.83750655 26.6726082,6.25036277 C27.3015195,6.66321899 27.8071942,7.22172097 28.1896323,7.9258687 C28.3651994,8.24912416 28.5004675,8.60918359 28.5954364,9.00604699 L28.5937862,9.04088417 C28.5937862,11.7772378 26.5150305,13.036869 25.0262161,13.6423719 L25.027035,13.6273295 L24.9774537,13.6617159 L24.712318,13.7642315 C24.460001,13.857781 24.1910169,13.9474814 23.9053656,14.0333326 C23.7734943,14.0633702 23.6354786,14.0911037 23.491404,14.117175 C23.1441841,14.1800068 22.8010901,14.235234 22.4621219,14.2828568 C22.1231537,14.3304795 21.8294083,14.3715494 21.5808855,14.4060665 C21.0231117,14.4834062 20.5236662,14.6080181 20.0825491,14.7799022 C19.6414321,14.9517863 19.293511,15.1913292 19.038786,15.4985309 C18.784061,15.8057326 18.6566985,16.2009528 18.6566985,16.6841915 C18.6566985,17.3703256 18.9083224,17.8897802 19.4115701,18.2425552 C19.9148179,18.5953301 20.5550821,18.7717176 21.3323628,18.7717176 C21.5946905,18.7717176 21.8448552,18.7535793 22.082857,18.7173025 C24.1356093,18.8570312 27.8104959,15.0884291 28.7641518,12.2660101 L28.7632894,21.2072727 L25.1597099,21.2072727 L25.1597099,19.0202404 L25.0354485,19.0202404 C24.8089304,19.4648631 24.4892702,19.8783934 24.0764679,20.2608315 C23.6636656,20.6432696 23.1493617,20.9504713 22.533556,21.1824366 C21.9177503,21.414402 21.1942946,21.5303846 20.3631889,21.5303846 C19.3524867,21.5303846 18.4453625,21.348469 17.6418165,20.9846378 C16.8382705,20.6208066 16.2031568,20.0837159 15.7364756,19.3733659 C15.2697943,18.6630159 15.0364537,17.7859324 15.0364537,16.7421154 C15.0364537,15.8474767 15.2035108,15.1057108 15.537625,14.5168176 C15.8717393,13.9279245 16.3252878,13.457441 16.8982708,13.1053671 C17.4712537,12.7532932 18.1177742,12.4871884 18.8378321,12.3070526 C19.55789,12.1269167 20.3038088,11.9954284 21.0755883,11.9125874 C22.0116475,11.8103307 22.7692966,11.7195077 23.3485358,11.6401185 C23.927775,11.5607293 24.349584,11.4368185 24.613963,11.2683861 C24.878342,11.0999537 25.0105315,10.83695 25.0105315,10.479375 L25.0105315,10.4130376 C25.0105315,9.63435458 24.7802921,9.03100741 24.3198131,8.60299605 C23.8593341,8.17498469 23.1921304,7.960979 22.318202,7.960979 C21.4000486,7.960979 20.6738153,8.161879 20.1395023,8.56367898 C19.6051892,8.96547896 19.2434883,9.43836248 19.0543996,9.98232955 L15.5584162,9.48528409 C15.8345525,8.51880682 16.2905281,7.7093821 16.9263429,7.05700994 C17.5621576,6.40463778 18.3387911,5.91449574 19.2562434,5.58658381 C20.1736957,5.25867187 21.1888474,5.09471591 22.3016985,5.09471591 Z" id="Combined-Shape"></path>
            <path d="M38.7464325,5.30181818 L38.7464325,8.20125 L29.6091773,8.20125 L29.6091773,5.30181818 L38.7464325,5.30181818 Z M31.8623853,1.49113636 L35.6151432,1.49113636 L35.6151432,16.427417 C35.6151432,16.9299636 35.6914313,17.3134264 35.8440074,17.5778054 C35.9965836,17.8421844 36.2009083,18.0230483 36.4569816,18.1203972 C36.713055,18.217746 36.9985217,18.2664205 37.3133819,18.2664205 C37.543891,18.2664205 37.7571956,18.2488114 37.9532955,18.2135932 C38.1493955,18.178375 38.3005694,18.1490086 38.4068172,18.1254938 L39.0363757,21.0498426 C38.8348825,21.1174745 38.5504944,21.1930614 38.1832114,21.2766034 C37.8159285,21.3601455 37.3658046,21.4088199 36.8328399,21.4226267 C35.8939762,21.4502404 35.0486592,21.3066441 34.2968887,20.9918378 C33.5451183,20.6770316 32.9500498,20.1896671 32.5116833,19.5297443 C32.0733168,18.8698216 31.8568842,18.0400102 31.8623853,17.0403103 L31.8623853,1.49113636 Z" id="Shape"></path>
            <path d="M44.7284669,21.5303846 C43.7177647,21.5303846 42.8106405,21.348469 42.0070945,20.9846378 C41.2035485,20.6208066 40.5684348,20.0837159 40.1017536,19.3733659 C39.6350723,18.6630159 39.4017317,17.7859324 39.4017317,16.7421154 C39.4017317,15.8474767 39.5687888,15.1057108 39.902903,14.5168176 C40.2370173,13.9279245 40.6905658,13.457441 41.2635488,13.1053671 C41.8365318,12.7532932 42.4830522,12.4871884 43.2031101,12.3070526 C43.9231681,12.1269167 44.6690868,11.9954284 45.4408664,11.9125874 C46.3769255,11.8103307 47.1345746,11.7195077 47.7138138,11.6401185 C48.293053,11.5607293 48.7148621,11.4368185 48.979241,11.2683861 C49.24362,11.0999537 49.3758095,10.83695 49.3758095,10.479375 L49.3758095,10.4130376 C49.3758095,9.63435458 49.1455701,9.03100741 48.6850911,8.60299605 C48.2246121,8.17498469 47.5574084,7.960979 46.68348,7.960979 C45.7653266,7.960979 45.0390933,8.161879 44.5047803,8.56367898 C43.9704672,8.96547896 43.6087663,9.43836248 43.4196776,9.98232955 L39.9236942,9.48528409 C40.1998305,8.51880682 40.6558061,7.7093821 41.2916209,7.05700994 C41.9274356,6.40463778 42.7040692,5.91449574 43.6215214,5.58658381 C44.5389737,5.25867187 45.5541254,5.09471591 46.6669765,5.09471591 C47.429156,5.09471591 48.190958,5.18410966 48.9523825,5.36289717 C49.7138069,5.54168468 50.4089748,5.83750655 51.0378862,6.25036277 C51.6667975,6.66321899 52.1724723,7.22172097 52.5549103,7.9258687 C52.9373484,8.63001642 53.1285674,9.50879883 53.1285674,10.5622159 L53.1285674,21.2072727 L49.5249879,21.2072727 L49.5249879,19.0202404 L49.4007265,19.0202404 C49.1742084,19.4648631 48.8545482,19.8783934 48.4417459,20.2608315 C48.0289436,20.6432696 47.5146397,20.9504713 46.898834,21.1824366 C46.2830283,21.414402 45.5595726,21.5303846 44.7284669,21.5303846 Z M45.6976408,18.7717176 C46.4515147,18.7717176 47.1049385,18.6219191 47.6579124,18.3223219 C48.2108862,18.0227247 48.6381965,17.6251045 48.9398431,17.1294613 C49.2414897,16.6338181 49.392313,16.0904983 49.392313,15.4995017 L49.392313,13.6273295 C49.2694539,13.7267818 49.0696056,13.8175778 48.7927681,13.8997176 C48.5159306,13.9818574 48.2039019,14.0543432 47.856682,14.117175 C47.5094621,14.1800068 47.1663681,14.235234 46.8273999,14.2828568 C46.4884317,14.3304795 46.1946863,14.3715494 45.9461635,14.4060665 C45.3883897,14.4834062 44.8889442,14.6080181 44.4478271,14.7799022 C44.0067101,14.9517863 43.6587891,15.1913292 43.404064,15.4985309 C43.149339,15.8057326 43.0219765,16.2009528 43.0219765,16.6841915 C43.0219765,17.3703256 43.2736004,17.8897802 43.7768481,18.2425552 C44.2800959,18.5953301 44.9203601,18.7717176 45.6976408,18.7717176 Z" id="Shape"></path>
            <polygon id="Path" points="58.9199929 0 58.9199929 21.2072727 55.167235 21.2072727 55.167235 0"></polygon>
            <path d="M63.3611985,27.1718182 C62.8503462,27.1718182 62.378838,27.1321236 61.9466738,27.0527344 C61.5145096,26.9733452 61.1714156,26.8804727 60.9173917,26.7741171 L61.7872212,23.8581818 C62.3311883,24.015558 62.8178786,24.0914955 63.2472922,24.0859943 C63.6767059,24.0804932 64.0539664,23.9483037 64.3790738,23.6894258 C64.7041812,23.430548 64.9806412,23.0008108 65.2084537,22.4002142 L65.5315656,21.5386364 L59.7658707,5.30181818 L63.7422343,5.30181818 L67.4038996,17.31375 L67.5695814,17.31375 L71.2475883,5.30181818 L75.2406172,5.30181818 L68.870119,23.1291171 C68.5718701,23.9727353 68.1783758,24.6972696 67.689636,25.3027202 C67.2008962,25.9081707 66.6013513,26.3710497 65.8910013,26.6913571 C65.1806513,27.0116645 64.3373837,27.1718182 63.3611985,27.1718182 Z" id="Path"></path>
            <path d="M88.6616732,9.51020108 L85.2402789,9.88298517 C85.1464357,9.53360795 84.9797292,9.20739491 84.7401593,8.90434604 C84.5005894,8.60129716 84.1813068,8.35590254 83.7823113,8.16816218 C83.3833158,7.98042181 82.894576,7.88655162 82.3160919,7.88655162 C81.5360067,7.88655162 80.8819087,8.05600874 80.3537979,8.39492298 C79.8256871,8.73383722 79.563034,9.17463068 79.5658385,9.71730336 C79.563034,10.175625 79.7362934,10.5504585 80.0856166,10.841804 C80.4349399,11.1331494 81.0127499,11.371317 81.8190465,11.5563068 L84.5280413,12.1361932 C86.0329845,12.4620557 87.1540873,12.9773844 87.8913498,13.6821793 C88.6286124,14.3869742 88.9986459,15.3075546 89.0014504,16.4439205 C88.9986459,17.4435125 88.707651,18.3250725 88.1284658,19.0886003 C87.5492805,19.8521281 86.7502109,20.4485989 85.731257,20.8780125 C84.712303,21.3074261 83.5379953,21.5221329 82.208334,21.5221329 C80.2629749,21.5221329 78.6972763,21.1120542 77.5112383,20.2918969 C76.3252003,19.4717395 75.6155244,18.3298995 75.3822108,16.8663767 L79.043876,16.5185096 C79.2068612,17.2336597 79.5586115,17.774175 80.0991268,18.1400557 C80.6396422,18.5059364 81.3399607,18.6888767 82.2000823,18.6888767 C83.0934266,18.6888767 83.8103564,18.5069611 84.3508718,18.1431299 C84.8913871,17.7792987 85.1630471,17.3261006 85.1658516,16.7835358 C85.1630471,16.3307153 84.9869832,15.9555312 84.6376599,15.6579835 C84.2883366,15.3604358 83.7491965,15.133675 83.0202397,14.9777011 L80.3029931,14.4060665 C78.7801442,14.0857051 77.6531627,13.5482639 76.9220485,12.7937429 C76.1909344,12.0392219 75.8267795,11.0827761 75.829584,9.92440563 C75.8267795,8.94412154 76.0956619,8.0929258 76.6362312,7.37081843 C77.1768005,6.64871105 77.9313485,6.08883378 78.8998752,5.69118663 C79.8684019,5.29353948 80.9905835,5.09471591 82.2664197,5.09471591 C84.1303402,5.09471591 85.5983394,5.49236306 86.6704172,6.28765736 C87.7424951,7.08295166 88.4062471,8.1571329 88.6616732,9.51020108 Z" id="Path"></path>
            <path d="M98.2969442,5.30181818 L98.2969442,8.20125 L89.159689,8.20125 L89.159689,5.30181818 L98.2969442,5.30181818 Z M91.412897,1.49113636 L95.1656549,1.49113636 L95.1656549,16.427417 C95.1656549,16.9299636 95.2419429,17.3134264 95.3945191,17.5778054 C95.5470952,17.8421844 95.7514199,18.0230483 96.0074932,18.1203972 C96.2635666,18.217746 96.5490333,18.2664205 96.8638935,18.2664205 C97.0944026,18.2664205 97.3077072,18.2488114 97.5038072,18.2135932 C97.6999071,18.178375 97.851081,18.1490086 97.9573288,18.1254938 L98.5868873,21.0498426 C98.3853941,21.1174745 98.101006,21.1930614 97.733723,21.2766034 C97.3664401,21.3601455 96.9163163,21.4088199 96.3833515,21.4226267 C95.4444879,21.4502404 94.5991708,21.3066441 93.8474004,20.9918378 C93.0956299,20.6770316 92.5005614,20.1896671 92.0621949,19.5297443 C91.6238285,18.8698216 91.4073958,18.0400102 91.412897,17.0403103 L91.412897,1.49113636 Z" id="Shape"></path>
        </g>
    </g>
</svg>