<?xml version="1.0" encoding="UTF-8"?>
<svg width="24px" height="24px" viewBox="0 0 24 24" version="1.1" xmlns="http://www.w3.org/2000/svg" xmlns:xlink="http://www.w3.org/1999/xlink">
    <title>icon/no-image</title>
    <g id="icon/no-image" stroke="none" stroke-width="1" fill="none" fill-rule="evenodd">
        <path d="M18.9022041,1.78032306 L2.15787399,18.9161748 L2.15787399,2.78032306 C2.15787399,2.22803831 2.60558924,1.78032306 3.15787399,1.78032306 L18.9022041,1.78032306 Z M8.5,6 C7.67157288,6 7,6.67157288 7,7.5 C7,8.32842712 7.67157288,9 8.5,9 C9.32842712,9 10,8.32842712 10,7.5 C10,6.67157288 9.32842712,6 8.5,6 Z" id="Combined-Shape" fill="#FFFFFF"></path>
        <path d="M22.3127239,2.34137489 L22.3305447,2.35925474 C22.7156803,2.74813007 22.7166447,3.37436753 22.3327086,3.76442724 L21.2897743,4.82274284 L21.2904988,20.6534618 C21.2904988,21.2057465 20.8427835,21.6534618 20.2904988,21.6534618 L4.7237743,21.6527428 L4.16562893,22.2212662 C3.78311227,22.6098839 3.15798438,22.6148297 2.7693667,22.2323131 L2.75154597,22.2144332 C2.36641033,21.8255579 2.36544591,21.1993204 2.74938197,20.8092607 L20.9164617,2.35242176 C21.2989783,1.96380409 21.9241062,1.95885823 22.3127239,2.34137489 Z M15.5766174,12.1724834 L10.3231813,17.7891526 L18.9022041,17.7891526 L15.5766174,12.1724834 Z" id="Combined-Shape" fill="#FFFFFF"></path>
    </g>
</svg>