<?xml version="1.0" encoding="UTF-8"?>
<svg width="24px" height="24px" viewBox="0 0 24 24" version="1.1" xmlns="http://www.w3.org/2000/svg" xmlns:xlink="http://www.w3.org/1999/xlink">
    <title>icon/notifications</title>
    <defs>
        <path d="M18.5454545,5 C19.8973239,5 21,6.04822297 21,7.33333333 L21,16.6666667 C21,17.951777 19.8973239,19 18.5454545,19 L5.45454545,19 C4.10267611,19 3,17.951777 3,16.6666667 L3,7.33333333 C3,6.04822297 4.10267611,5 5.45454545,5 Z M19.363,8.827 L12.4691965,13.4149582 C12.2187818,13.5815921 11.8946933,13.600107 11.6279067,13.4705028 L11.5308035,13.4149582 L4.636,8.827 L4.63636364,16.6666667 C4.63636364,17.0598981 4.9516735,17.3898857 5.35264961,17.4383262 L5.45454545,17.4444444 L18.5454545,17.4444444 C18.9935852,17.4444444 19.3636364,17.0926674 19.3636364,16.6666667 L19.363,8.827 Z M18.5454545,6.55555556 L5.45454545,6.55555556 C5.13732476,6.55555556 4.85922874,6.73182668 4.72382197,6.98591866 L12,11.8281111 L19.276178,6.98591866 C19.1407713,6.73182668 18.8626752,6.55555556 18.5454545,6.55555556 Z" id="path-1"></path>
    </defs>
    <g id="icon/notifications" stroke="none" stroke-width="1" fill="none" fill-rule="evenodd">
        <mask id="mask-2" fill="white">
            <use xlink:href="#path-1"></use>
        </mask>
        <use id="icon" fill="#000000" fill-rule="nonzero" xlink:href="#path-1"></use>
        <circle id="Oval" fill="#F12762" cx="20.5" cy="5.5" r="3.5"></circle>
    </g>
</svg>