<?xml version="1.0" encoding="UTF-8"?>
<svg width="24px" height="24px" viewBox="0 0 24 24" version="1.1" xmlns="http://www.w3.org/2000/svg" xmlns:xlink="http://www.w3.org/1999/xlink">
    <title>icon/offer-made</title>
    <g id="icon/offer-made" stroke="none" stroke-width="1" fill="none" fill-rule="evenodd">
        <path d="M19,2 C20.6568542,2 22,3.34314575 22,5 L22,19 C22,20.6568542 20.6568542,22 19,22 L15,22 C14.4477153,22 14,21.5522847 14,21 C14,20.4477153 14.4477153,20 15,20 L19,20 C19.5522847,20 20,19.5522847 20,19 L20,5 C20,4.44771525 19.5522847,4 19,4 L15,4 C14.4477153,4 14,3.55228475 14,3 C14,2.44771525 14.4477153,2 15,2 L19,2 Z M10.7071068,6.29289322 L15.7071068,11.2928932 C15.7355731,11.3213595 15.7623312,11.3515341 15.787214,11.3832499 L15.7071068,11.2928932 C15.7425008,11.3282873 15.774687,11.3656744 15.8036654,11.4046934 C15.8215099,11.4288693 15.8382813,11.453725 15.8539326,11.4793398 C15.8613931,11.4913869 15.8685012,11.5036056 15.8753288,11.5159379 C15.8862061,11.5357061 15.8966234,11.5561086 15.9063462,11.5769009 C15.914321,11.5939015 15.9218036,11.6112044 15.9287745,11.628664 C15.9366843,11.6484208 15.9438775,11.6682023 15.9504533,11.6882636 C15.9552713,11.7031487 15.9599023,11.7185367 15.9641549,11.734007 C15.9701664,11.7555635 15.9753602,11.7772539 15.9798348,11.7992059 C15.9832978,11.8166247 15.9863719,11.834051 15.9889822,11.8515331 C15.9920328,11.8714753 15.9944666,11.892114 15.9962623,11.912935 C15.9978436,11.9317345 15.9989053,11.9497336 15.9994829,11.9677454 C15.9998183,11.9777892 16,11.9888734 16,12 L15.9994506,12.0332468 C15.9988772,12.050591 15.997855,12.0679231 15.996384,12.0852242 L16,12 C16,12.0506203 15.9962388,12.1003621 15.9889807,12.1489612 C15.9863719,12.165949 15.9832978,12.1833753 15.9797599,12.2007258 C15.9753602,12.2227461 15.9701664,12.2444365 15.964279,12.2658396 C15.9599023,12.2814633 15.9552713,12.2968513 15.9502619,12.3121425 C15.9438775,12.3317977 15.9366843,12.3515792 15.928896,12.3710585 C15.9218036,12.3887956 15.914321,12.4060985 15.9063266,12.4232215 C15.8966234,12.4438914 15.8862061,12.4642939 15.8751242,12.484277 C15.8685012,12.4963944 15.8613931,12.5086131 15.8540045,12.5207088 C15.8382813,12.546275 15.8215099,12.5711307 15.8036865,12.5951593 C15.7982466,12.602603 15.7927155,12.6098424 15.7870723,12.6170223 C15.7849289,12.6196628 15.7826279,12.6225624 15.7803112,12.625449 L15.7071068,12.7071068 L10.7071068,17.7071068 C10.3165825,18.0976311 9.68341751,18.0976311 9.29289322,17.7071068 C8.90236893,17.3165825 8.90236893,16.6834175 9.29289322,16.2928932 L12.585,13 L3,13 C2.44771525,13 2,12.5522847 2,12 C2,11.4477153 2.44771525,11 3,11 L12.585,11 L9.29289322,7.70710678 C8.93240926,7.34662282 8.90467972,6.77939176 9.20970461,6.38710056 L9.29289322,6.29289322 C9.68341751,5.90236893 10.3165825,5.90236893 10.7071068,6.29289322 Z" id="Combined-Shape" fill="#000000" fill-rule="nonzero"></path>
    </g>
</svg>