<?xml version="1.0" encoding="UTF-8"?>
<svg width="24px" height="24px" viewBox="0 0 24 24" version="1.1" xmlns="http://www.w3.org/2000/svg" xmlns:xlink="http://www.w3.org/1999/xlink">
    <title>icon/plus-small</title>
    <defs>
        <path d="M6.8,0 C7.2418278,0 7.6,0.3581722 7.6,0.8 L7.6,6 L12.8,6 C13.2418278,6 13.6,6.3581722 13.6,6.8 C13.6,7.2418278 13.2418278,7.6 12.8,7.6 L7.6,7.6 L7.6,12.8 C7.6,13.2418278 7.2418278,13.6 6.8,13.6 C6.3581722,13.6 6,13.2418278 6,12.8 L6,7.6 L0.8,7.6 C0.3581722,7.6 0,7.2418278 0,6.8 C0,6.3581722 0.3581722,6 0.8,6 L6,6 L6,0.8 C6,0.3581722 6.3581722,0 6.8,0 Z" id="path-1"></path>
    </defs>
    <g id="icon/plus-small" stroke="none" stroke-width="1" fill="none" fill-rule="evenodd">
        <g id="colour/black" transform="translate(5.200000, 5.200000)">
            <mask id="mask-2" fill="white">
                <use xlink:href="#path-1"></use>
            </mask>
            <use id="Mask" fill="#000000" fill-rule="nonzero" xlink:href="#path-1"></use>
            <g mask="url(#mask-2)" fill="#000000" id="Rectangle">
                <g transform="translate(-5.200000, -5.200000)">
                    <rect x="0" y="0" width="24" height="24"></rect>
                </g>
            </g>
        </g>
    </g>
</svg>