<?xml version="1.0" encoding="UTF-8"?>
<svg width="24px" height="24px" viewBox="0 0 24 24" version="1.1" xmlns="http://www.w3.org/2000/svg" xmlns:xlink="http://www.w3.org/1999/xlink">
    <title>icon/private-profile</title>
    <defs>
        <path d="M0.292893305,0.292893219 C0.683417597,-0.0976310729 1.31658258,-0.0976310729 1.70710687,0.292893219 L23.7071069,22.2928932 C24.0976312,22.6834175 24.0976312,23.3165825 23.7071069,23.7071068 C23.3165826,24.0976311 22.6834176,24.0976311 22.2928933,23.7071068 L17.8240001,19.239 L17.6267501,19.3655645 C16.047494,20.3348518 14.2446353,20.8945537 12.3748113,20.9876245 L12,21 C8.62019764,21 5.66130782,19.3675091 3.14546288,16.6839411 C2.2811264,15.7619822 1.53050058,14.7775549 0.894335709,13.7925254 C0.509967347,13.1973744 0.246140993,12.7283498 0.105572895,12.4472136 C-0.0397387123,12.1565904 -0.0347894326,11.8134847 0.118844417,11.5271737 C1.18428331,9.54162942 2.58471545,7.75986667 4.25469767,6.25871007 L4.56900009,5.983 L0.292893305,1.70710678 C-0.0675906564,1.34662282 -0.0953201919,0.779391764 0.209704699,0.387100557 L0.292893305,0.292893219 Z M5.98800009,7.402 L5.89458785,7.48012486 C4.51344354,8.66512181 3.32611294,10.0589447 2.37576529,11.6109166 L2.14300009,12.003 L2.17054402,12.0513388 C2.24971314,12.1869631 2.33597772,12.329871 2.42925333,12.4790735 L2.57441446,12.7074746 C3.14918709,13.5974451 3.82824878,14.4880178 4.60453729,15.3160589 C6.77619235,17.6324909 9.25480253,19 11.9836528,19.0001336 C13.4638868,18.9759325 14.9085024,18.5900311 16.1948763,17.8849552 L16.3690001,17.784 L14.0480001,15.463 L13.9702675,15.5126171 C13.1341892,16.0098972 12.1344617,16.1911261 11.1597958,16.0009501 L10.9354036,15.9504452 C9.518159,15.5885058 8.41149432,14.4818411 8.04955491,13.0645965 C7.78286271,12.020311 7.95185052,10.9301246 8.48738298,10.0297325 L8.53600009,9.951 L5.98800009,7.402 Z M12.0000001,2.99994779 C15.3798033,2.99994779 18.3386934,4.63247103 20.8545384,7.31604743 C21.7188747,8.23800914 22.4695005,9.2224394 23.1056652,10.2074718 C23.4900335,10.8026246 23.7538598,11.2716506 23.8944278,11.5527875 C24.0394856,11.8429039 24.0348202,12.1853551 23.8819131,12.4714122 C23.2420807,13.6684038 22.4790255,14.7953232 21.6051563,15.8338447 C21.2495707,16.2564288 20.6187395,16.3107418 20.1961554,15.9551562 C19.7735713,15.5995706 19.7192583,14.9687395 20.0748439,14.5461553 C20.6350164,13.8804365 21.14445,13.1742423 21.5990862,12.4335664 L21.8570001,11.998 L21.8294555,11.9486582 C21.7502863,11.8130335 21.6640217,11.6701251 21.5707461,11.5209221 L21.4255849,11.2925203 C20.8508122,10.4025468 20.1717504,9.51197119 19.3954618,8.68392739 C17.2238068,6.36748805 14.7451968,4.99997482 11.9976858,4.99997214 C11.3682227,4.99851536 10.7407528,5.07023183 10.1279133,5.21368145 C9.59016389,5.33955444 9.05219163,5.00566263 8.92631864,4.46791322 C8.80044564,3.9301638 9.13433745,3.39219155 9.67208687,3.26631855 C10.4358591,3.08753956 11.2178513,2.99816199 12.0000001,2.99994779 Z M10.0280001,11.442 L9.98469695,11.5904936 C9.90578017,11.9065974 9.90383645,12.2426584 9.98736093,12.5697148 C10.1683306,13.2783371 10.721663,13.8316695 11.4302853,14.0126392 C11.7573417,14.0961636 12.0934026,14.0942199 12.4095065,14.0153031 L12.5570001,13.971 L10.0280001,11.442 Z" id="path-1"></path>
    </defs>
    <g id="icon/private-profile" stroke="none" stroke-width="1" fill="none" fill-rule="evenodd">
        <g id="colour/black" transform="translate(-0.000000, 0.000000)">
            <mask id="mask-2" fill="white">
                <use xlink:href="#path-1"></use>
            </mask>
            <use id="Mask" fill="#000000" fill-rule="nonzero" xlink:href="#path-1"></use>
            <g mask="url(#mask-2)" fill="#000000" id="Rectangle">
                <g transform="translate(0.000000, 0.000000)">
                    <rect x="0" y="0" width="24" height="24"></rect>
                </g>
            </g>
        </g>
    </g>
</svg>