<?xml version="1.0" encoding="UTF-8"?>
<svg width="24px" height="24px" viewBox="0 0 24 24" version="1.1" xmlns="http://www.w3.org/2000/svg" xmlns:xlink="http://www.w3.org/1999/xlink">
    <title>icon/refresh-metadata-white</title>
    <defs>
        <path d="M7,12.9978045 C7.55228475,12.9978045 8,13.4455198 8,13.9978045 C8,14.5500893 7.55228475,14.9978045 7,14.9978045 L3.52399697,14.9977522 L6.34728395,17.650875 C8.28911431,19.5936788 11.0919006,20.4043876 13.7710291,19.798201 C16.4501576,19.1920143 18.6309447,17.2537091 19.5472839,14.6642083 C19.7315241,14.1435606 20.3029485,13.8708484 20.8235962,14.0550885 C21.3442439,14.2393286 21.6169562,14.8107531 21.4327161,15.3314008 C20.287292,18.5682767 17.5613081,20.9911583 14.2123975,21.7488916 C10.8634869,22.5066249 7.360004,21.4932388 4.95522341,19.0865576 L1.99999697,16.3087522 L2,19.9978045 C2,20.5106404 1.61395981,20.9333117 1.11662113,20.9910768 L1,20.9978045 C0.44771525,20.9978045 2.30926389e-14,20.5500893 2.30926389e-14,19.9978045 L2.30926389e-14,13.9978045 L5.43918715e-05,13.9868616 C0.000268313303,13.9668395 0.00108002551,13.9468191 0.00249043148,13.9268295 L2.30926389e-14,13.9978045 C2.30926389e-14,13.9524208 0.00302326095,13.9077433 0.00887937306,13.8639622 C0.0111674577,13.8472029 0.0138478827,13.8304518 0.0169562535,13.8137618 C0.0206827067,13.7934177 0.0251041577,13.7731994 0.0301267757,13.75322 C0.0351245204,13.7335987 0.040517675,13.7145739 0.0464871709,13.695687 C0.0517848242,13.6788095 0.0576603104,13.6618528 0.0639721286,13.64511 C0.0714867622,13.6251715 0.0796411902,13.6054456 0.0884568319,13.5859387 C0.0958351008,13.5697157 0.103426982,13.5540669 0.111408187,13.5386523 C0.119597738,13.5227019 0.128478873,13.5066227 0.137838762,13.4907414 C0.152255556,13.4663949 0.167643264,13.4426574 0.183980317,13.419641 C0.187794726,13.4142019 0.191658177,13.4088762 0.195580943,13.4035796 C0.216965336,13.3747305 0.239873292,13.3470169 0.264184038,13.3206151 L0.274230331,13.3098635 C0.298160499,13.2846259 0.323393053,13.2606354 0.349820364,13.2379998 L0.271246936,13.313028 C0.30150227,13.2808296 0.333387472,13.2510811 0.366654201,13.2237902 C0.425579693,13.1755633 0.490628427,13.1335798 0.560225328,13.0994457 C0.588964065,13.0855945 0.61042032,13.076243 0.632121857,13.0676767 C0.643440263,13.0631612 0.654994278,13.0588323 0.666647434,13.0547132 C0.685739834,13.0480438 0.705281087,13.041821 0.724964848,13.0362112 C0.744324052,13.0305796 0.763776304,13.0256579 0.783446032,13.0213154 C0.796632981,13.0185158 0.810347203,13.0157802 0.824104585,13.0133332 C0.849704239,13.0086788 0.875736776,13.0050982 0.90206838,13.0025389 C0.917846354,13.0010636 0.932865638,12.9999437 0.947901173,12.9991612 C0.96436944,12.9982733 0.982129981,12.9978045 1,12.9978045 L7,12.9978045 Z M23.6333458,10.7718188 C23.5863792,10.8102365 23.535356,10.8448372 23.4812847,10.8745815 C23.4453413,10.8944112 23.4084834,10.9117572 23.3708814,10.9267413 C23.3586113,10.9316772 23.3460407,10.9364109 23.3333526,10.9408958 L23.2750352,10.9593979 C23.2556759,10.9650294 23.2362237,10.9699512 23.216554,10.9742937 C23.1993771,10.9779765 23.1816374,10.9814023 23.1638305,10.984346 C23.1447577,10.9875966 23.1253232,10.9902227 23.1057201,10.9922825 C23.0865749,10.9942355 23.0678492,10.9956798 23.0490996,10.9965994 C23.0332323,10.997397 23.0166638,10.9978045 23,10.9978045 L17,10.9978045 C16.4477153,10.9978045 16,10.5500893 16,9.99780454 C16,9.44551979 16.4477153,8.99780454 17,8.99780454 L20.475997,8.9977522 L17.6527161,6.34473411 C15.7108857,4.40193032 12.9080994,3.59122147 10.2289709,4.19740812 C7.54984242,4.80359477 5.36905528,6.74190002 4.45271605,9.33140078 C4.26847594,9.85204847 3.69705146,10.1247607 3.17640376,9.94052059 C2.65575607,9.75628048 2.38304384,9.184856 2.56728395,8.6642083 C3.71270799,5.42733237 6.43869191,3.0044508 9.78760253,2.24671749 C13.1365131,1.48898418 16.639996,2.50237023 19.0447766,4.90905148 L21.999997,7.6867522 L22,3.99780454 C22,3.4849687 22.3860402,3.06229738 22.8833789,3.00453227 L23,2.99780454 C23.5522847,2.99780454 24,3.44551979 24,3.99780454 L24,9.99780454 L23.9997888,10.0187583 L23.9984976,10.0530127 L24,9.99780454 C24,10.0431882 23.9969767,10.0878658 23.9911206,10.1316469 C23.9887684,10.1488976 23.9859795,10.166239 23.9827318,10.1835142 C23.9791602,10.2028093 23.9750336,10.2216861 23.9703822,10.2403553 L23.9521163,10.3043054 C23.9471911,10.3197165 23.9419728,10.3346785 23.9364138,10.3494738 C23.928839,10.3696489 23.920535,10.3897736 23.9115432,10.4096704 C23.9041649,10.4258934 23.896573,10.4415421 23.8885918,10.4569568 C23.8802617,10.473179 23.8712239,10.4895242 23.8616912,10.5056643 C23.8490143,10.5270031 23.8357201,10.5477106 23.8217026,10.5678775 C23.8148638,10.577801 23.8074009,10.58812 23.7997157,10.5983281 C23.779623,10.624955 23.7587504,10.6500216 23.7367215,10.6740092 L23.7287531,10.6825811 L23.6501796,10.7576093 L23.688997,10.7217522 C23.6662671,10.7439135 23.6499792,10.7581734 23.6333458,10.7718188 Z" id="path-1"></path>
    </defs>
    <g id="icon/refresh-metadata-white" stroke="none" stroke-width="1" fill="none" fill-rule="evenodd">
        <mask id="mask-2" fill="white">
            <use xlink:href="#path-1"></use>
        </mask>
        <use id="Mask" fill="#000000" fill-rule="nonzero" xlink:href="#path-1"></use>
        <g id="colour/black" mask="url(#mask-2)" fill="#FFFFFF">
            <g transform="translate(0.000000, 0.000000)" id="Rectangle">
                <rect x="0" y="0" width="24" height="24"></rect>
            </g>
        </g>
    </g>
</svg>