<?xml version="1.0" encoding="UTF-8"?>
<svg width="24px" height="24px" viewBox="0 0 24 24" version="1.1" xmlns="http://www.w3.org/2000/svg" xmlns:xlink="http://www.w3.org/1999/xlink">
    <title>icon/spotlight-artist-small</title>
    <defs>
        <linearGradient x1="12.6694289%" y1="9.48121273%" x2="104.894177%" y2="90.5790209%" id="linearGradient-1">
            <stop stop-color="#5DF6B8" offset="0%"></stop>
            <stop stop-color="#578EF7" offset="30.9131378%"></stop>
            <stop stop-color="#FC1CCB" offset="86.3725658%"></stop>
            <stop stop-color="#006FFF" offset="100%"></stop>
        </linearGradient>
    </defs>
    <g id="icon/spotlight-artist-small" stroke="none" stroke-width="1" fill="none" fill-rule="evenodd">
        <path d="M10.6648744,22.7357282 C10.0164133,23.2036481 9.11140769,23.0572905 8.64348781,22.4088294 C8.60728822,22.3586626 8.574341,22.3062274 8.54484872,22.2518462 C8.07621541,21.3877263 7.10681969,20.9208899 6.13903551,21.0932676 C5.35176941,21.2334921 4.59988972,20.7089613 4.4596652,19.9216952 C4.44881704,19.8607901 4.4418834,19.7992523 4.43890691,19.7374603 C4.39161044,18.7555828 3.72076779,17.9143727 2.77403252,17.6497738 C2.00388914,17.4345298 1.55405434,16.6357154 1.76929837,15.8655721 C1.78595026,15.8059916 1.80640349,15.7475396 1.83053233,15.6905755 C2.21394034,14.7854133 1.97451937,13.7364415 1.23634554,13.087273 C0.635861214,12.5591922 0.577166614,11.6443093 1.10524748,11.043825 C1.14610129,10.9973699 1.18989039,10.9535808 1.23634554,10.912727 C1.97451937,10.2635585 2.21394034,9.2145867 1.83053233,8.30942452 C1.51864035,7.57309972 1.86271113,6.72335212 2.59903593,6.41146014 C2.65600008,6.38733131 2.71445207,6.36687807 2.77403252,6.35022619 C3.72076779,6.08562725 4.39161044,5.24441717 4.43890691,4.26253973 C4.47738131,3.46380915 5.15607003,2.84749974 5.95480061,2.88597413 C6.01659265,2.88895062 6.0781304,2.89588426 6.13903551,2.90673242 C7.10681969,3.07911005 8.07621541,2.61227368 8.54484872,1.74815384 C8.92606916,1.04521587 9.8049532,0.784412277 10.5078912,1.16563272 C10.5622724,1.195125 10.6147076,1.22807222 10.6648744,1.26427181 C11.462026,1.83948451 12.537974,1.83948451 13.3351256,1.26427181 C13.9835867,0.796351933 14.8885923,0.942709514 15.3565122,1.59117062 C15.3927118,1.64133738 15.425659,1.69377259 15.4551513,1.74815384 C15.9237846,2.61227368 16.8931803,3.07911005 17.8609645,2.90673242 C18.6482306,2.7665079 19.4001103,3.29103874 19.5403348,4.07830484 C19.551183,4.13920994 19.5581166,4.2007477 19.5610931,4.26253973 C19.6083896,5.24441717 20.2792322,6.08562725 21.2259675,6.35022619 C21.9961109,6.56547022 22.4459457,7.36428455 22.2307016,8.13442793 C22.2140497,8.19400838 22.1935965,8.25246037 22.1694677,8.30942452 C21.7860597,9.2145867 22.0254806,10.2635585 22.7636545,10.912727 C23.3641388,11.4408078 23.4228334,12.3556907 22.8947525,12.956175 C22.8538987,13.0026301 22.8101096,13.0464192 22.7636545,13.087273 C22.0254806,13.7364415 21.7860597,14.7854133 22.1694677,15.6905755 C22.4813597,16.4269003 22.1372889,17.2766479 21.4009641,17.5885399 C21.3439999,17.6126687 21.2855479,17.6331219 21.2259675,17.6497738 C20.2792322,17.9143727 19.6083896,18.7555828 19.5610931,19.7374603 C19.5226187,20.5361909 18.84393,21.1525003 18.0451994,21.1140259 C17.9834074,21.1110494 17.9218696,21.1041157 17.8609645,21.0932676 C16.8931803,20.9208899 15.9237846,21.3877263 15.4551513,22.2518462 C15.0739308,22.9547841 14.1950468,23.2155877 13.4921088,22.8343673 C13.4377276,22.804875 13.3852924,22.7719278 13.3351256,22.7357282 C12.537974,22.1605155 11.462026,22.1605155 10.6648744,22.7357282 Z" id="Star" fill="url(#linearGradient-1)"></path>
        <path d="M12,5 L12.5343473,9.54957448 L14.8628394,5.61186718 L13.5106485,9.98664608 L17.2306679,7.34167132 L14.2257448,10.7852156 L18.6940664,9.89031358 L14.5559896,11.8072032 L19,12.8171106 L14.4442806,12.8758979 L18.09557,15.6159925 L13.9099332,13.8065126 L16.1371606,17.8030072 L13.0453411,14.4381356 L13.4633985,19 L12,14.6615536 L10.5366015,19 L10.9546589,14.4381356 L7.86283944,17.8030072 L10.0900668,13.8065126 L5.90443,15.6159925 L9.55571943,12.8758979 L5,12.8171106 L9.44401042,11.8072032 L5.30593359,9.89031358 L9.77425523,10.7852156 L6.76933208,7.34167132 L10.4893515,9.98664608 L9.13716056,5.61186718 L11.4656527,9.54957448 L12,5 Z M12,8.38069818 L11.8570917,9.59605685 L11.720794,10.7565317 L11.1268578,9.75212782 L10.5038841,8.69889486 L10.8657514,9.86902026 L11.2106592,10.9849095 L10.2617816,10.3102471 L9.265661,9.60139577 L10.070533,10.5238202 L10.8370086,11.4021763 L9.69725911,11.1739107 L8.50099207,10.9341982 L9.60893692,11.4472358 L10.6644497,11.9361831 L9.53090143,12.1937835 L8.3422022,12.4634673 L9.5607774,12.4796001 L10.7228197,12.4945952 L9.79147333,13.1935201 L8.81406713,13.9264926 L9.93438164,13.442408 L11.0020257,12.980858 L10.4339196,14.000257 L9.837755,15.0690565 L10.6651501,14.1691812 L11.4537906,13.3108923 L11.3471553,14.474502 L11.234768,15.6952585 L11.6267261,14.534254 L12,13.4276322 L12.3732739,14.534254 L12.7646689,15.6952585 L12.6528447,14.474502 L12.5462094,13.3108923 L13.3348499,14.1691812 L14.1616819,15.0690565 L13.5660804,14.000257 L12.9979743,12.980858 L14.0656184,13.442408 L15.1853698,13.9264926 L14.2085267,13.1935201 L13.2771803,12.4945952 L14.4392226,12.4796001 L15.6572347,12.4634673 L14.4690986,12.1937835 L13.3355503,11.9361831 L14.3910631,11.4472358 L15.4984448,10.9341982 L14.3027409,11.1739107 L13.1629914,11.4021763 L13.929467,10.5238202 L14.7337759,9.60139577 L13.7382184,10.3102471 L12.7893408,10.9849095 L13.1342486,9.86902026 L13.4955528,8.69889486 L12.8731422,9.75212782 L12.279206,10.7565317 L12.1429083,9.59605685 L12,8.38069818 Z" id="Star" fill="#FFFFFF" fill-rule="nonzero"></path>
    </g>
</svg>