<?xml version="1.0" encoding="UTF-8"?>
<svg width="35px" height="35px" viewBox="0 0 35 35" version="1.1" xmlns="http://www.w3.org/2000/svg" xmlns:xlink="http://www.w3.org/1999/xlink">
    <title>icon/spotlight-artist</title>
    <defs>
        <linearGradient x1="12.6694289%" y1="9.48121273%" x2="104.894177%" y2="90.5790209%" id="linearGradient-1">
            <stop stop-color="#5DF6B8" offset="0%"></stop>
            <stop stop-color="#578EF7" offset="30.9131378%"></stop>
            <stop stop-color="#FC1CCB" offset="86.3725658%"></stop>
            <stop stop-color="#006FFF" offset="100%"></stop>
        </linearGradient>
    </defs>
    <g id="icon/spotlight-artist" stroke="none" stroke-width="1" fill="none" fill-rule="evenodd">
        <path d="M15.5529418,33.1562703 C14.6072694,33.8386534 13.2874695,33.6252153 12.6050864,32.6795428 C12.5522953,32.606383 12.5042473,32.529915 12.4612377,32.450609 C11.7778141,31.1904342 10.364112,30.5096312 8.95276012,30.7610152 C7.80466373,30.9655093 6.7081725,30.2005685 6.50367842,29.0524721 C6.48785818,28.9636522 6.47774663,28.8739096 6.47340592,28.7837962 C6.40443189,27.3518916 5.42611969,26.1251269 4.04546409,25.7392535 C2.92233833,25.4253559 2.26632925,24.2604184 2.5802268,23.1372926 C2.60451079,23.0504044 2.63433843,22.965162 2.66952631,22.8820892 C3.22866299,21.5620611 2.87950741,20.0323105 1.80300391,19.0856065 C0.927297604,18.3154886 0.841701312,16.9812844 1.61181924,16.1055781 C1.67139771,16.0378311 1.73525682,15.973972 1.80300391,15.9143935 C2.87950741,14.9676895 3.22866299,13.4379389 2.66952631,12.1179108 C2.21468384,11.0441038 2.71645373,9.80488851 3.79026073,9.35004604 C3.87333345,9.31485816 3.95857594,9.28503052 4.04546409,9.26074653 C5.42611969,8.87487308 6.40443189,7.64810838 6.47340592,6.21620377 C6.52951441,5.05138834 7.5192688,4.15260378 8.68408423,4.20871227 C8.77419761,4.21305298 8.86394017,4.22316454 8.95276012,4.23898478 C10.364112,4.49036883 11.7778141,3.80956578 12.4612377,2.54939102 C13.0171842,1.52427314 14.2988901,1.14393457 15.324008,1.69988105 C15.403314,1.74289062 15.479782,1.79093866 15.5529418,1.84372973 C16.7154545,2.68258158 18.2845455,2.68258158 19.4470582,1.84372973 C20.3927306,1.16134657 21.7125305,1.37478471 22.3949136,2.32045715 C22.4477047,2.39361702 22.4957527,2.47008503 22.5387623,2.54939102 C23.2221859,3.80956578 24.635888,4.49036883 26.0472399,4.23898478 C27.1953363,4.03449069 28.2918275,4.7994315 28.4963216,5.94752789 C28.5121418,6.03634783 28.5222534,6.12609039 28.5265941,6.21620377 C28.5955681,7.64810838 29.5738803,8.87487308 30.9545359,9.26074653 C32.0776617,9.57464408 32.7336708,10.7395816 32.4197732,11.8627074 C32.3954892,11.9495956 32.3656616,12.034838 32.3304737,12.1179108 C31.771337,13.4379389 32.1204926,14.9676895 33.1969961,15.9143935 C34.0727024,16.6845114 34.1582987,18.0187156 33.3881808,18.8944219 C33.3286023,18.9621689 33.2647432,19.026028 33.1969961,19.0856065 C32.1204926,20.0323105 31.771337,21.5620611 32.3304737,22.8820892 C32.7853162,23.9558962 32.2835463,25.1951115 31.2097393,25.649954 C31.1266666,25.6851418 31.0414241,25.7149695 30.9545359,25.7392535 C29.5738803,26.1251269 28.5955681,27.3518916 28.5265941,28.7837962 C28.4704856,29.9486117 27.4807312,30.8473962 26.3159158,30.7912877 C26.2258024,30.786947 26.1360598,30.7768355 26.0472399,30.7610152 C24.635888,30.5096312 23.2221859,31.1904342 22.5387623,32.450609 C21.9828158,33.4757269 20.7011099,33.8560654 19.675992,33.300119 C19.596686,33.2571094 19.520218,33.2090613 19.4470582,33.1562703 C18.2845455,32.3174184 16.7154545,32.3174184 15.5529418,33.1562703 Z" id="Star" fill="url(#linearGradient-1)"></path>
        <path d="M17.5,8 L18.2251857,14.1744225 L21.3852821,8.83039117 L19.5501658,14.7675911 L24.5987636,11.1779825 L20.5206536,15.8513641 L26.5848044,14.6368541 L20.968843,17.2383472 L27,18.6089358 L20.8172379,18.6887185 L25.7725593,22.4074183 L20.0920523,19.9516956 L23.1147179,25.3755097 L18.9186772,20.8088984 L19.4860408,27 L17.5,21.1121085 L15.5139592,27 L16.0813228,20.8088984 L11.8852821,25.3755097 L14.9079477,19.9516956 L9.22744072,22.4074183 L14.1827621,18.6887185 L8,18.6089358 L14.031157,17.2383472 L8.41519559,14.6368541 L14.4793464,15.8513641 L10.4012364,11.1779825 L15.4498342,14.7675911 L13.6147179,8.83039117 L16.7748143,14.1744225 L17.5,8 Z M17.5,12.5880904 L17.306053,14.2375057 L17.1210775,15.8124359 L16.3150214,14.4493163 L15.469557,13.0199287 L15.9606626,14.6079561 L16.4287517,16.1223771 L15.1409893,15.2067639 L13.7891114,14.2447514 L14.8814376,15.4966131 L15.9216545,16.6886679 L14.3748516,16.3788788 L12.7513464,16.0535547 L14.2549858,16.74982 L15.6874675,17.4133914 L14.1490805,17.7629919 L12.5358458,18.1289914 L14.1896265,18.1508858 L15.7666839,18.1712363 L14.5027138,19.1197773 L13.176234,20.1145257 L14.6966608,19.4575537 L16.1456064,18.8311644 L15.3746051,20.2146345 L14.5655246,21.6651481 L15.6884179,20.4438887 L16.7587158,19.2790682 L16.6139965,20.8582528 L16.4614708,22.5149937 L16.9934141,20.9393447 L17.5,19.4375009 L18.0065859,20.9393447 L18.537765,22.5149937 L18.3860035,20.8582528 L18.2412842,19.2790682 L19.3115821,20.4438887 L20.4337112,21.6651481 L19.6253949,20.2146345 L18.8543936,18.8311644 L20.3033392,19.4575537 L21.8230019,20.1145257 L20.4972862,19.1197773 L19.2333161,18.1712363 L20.8103735,18.1508858 L22.46339,18.1289914 L20.8509195,17.7629919 L19.3125325,17.4133914 L20.7450142,16.74982 L22.2478894,16.0535547 L20.6251484,16.3788788 L19.0783455,16.6886679 L20.1185624,15.4966131 L21.2101244,14.2447514 L19.8590107,15.2067639 L18.5712483,16.1223771 L19.0393374,14.6079561 L19.5296788,13.0199287 L18.6849786,14.4493163 L17.8789225,15.8124359 L17.693947,14.2375057 L17.5,12.5880904 Z" id="Star" fill="#FFFFFF" fill-rule="nonzero"></path>
    </g>
</svg>