<?xml version="1.0" encoding="UTF-8"?>
<svg width="24px" height="24px" viewBox="0 0 24 24" version="1.1" xmlns="http://www.w3.org/2000/svg" xmlns:xlink="http://www.w3.org/1999/xlink">
    <title>icon/twitter-white 2</title>
    <defs>
        <path d="M21.5429616,6.85485674 C21.5575868,7.06643504 21.5575868,7.27801335 21.5575868,7.49154168 C21.5575868,13.9978183 16.6045094,21.5015356 7.54759293,21.5015356 L7.54759293,21.4976355 C4.87215113,21.5015356 2.25228519,20.7351736 0,19.290201 C0.389031079,19.3370018 0.780012188,19.3604021 1.17196831,19.3613771 C3.38915296,19.3633272 5.54296161,18.6193906 7.28726386,17.2494942 C5.18025594,17.2095185 3.33260207,15.8357221 2.68714199,13.8301157 C3.42522852,13.9724679 4.1857404,13.9432175 4.91017672,13.7452894 C2.61304083,13.2811821 0.960390006,11.2629006 0.960390006,8.91896399 L0.960390006,8.85656301 C1.6448507,9.23779397 2.41121268,9.44937227 3.19512492,9.47277264 C1.03156612,8.02682505 0.364655698,5.14858007 1.67117611,2.89824491 C4.17111517,5.97441798 7.85959781,7.8444972 11.8191347,8.04242529 C11.4223035,6.33224857 11.9644119,4.54017057 13.2436319,3.33797678 C15.2268129,1.47374766 18.3458867,1.56929915 20.2101158,3.55150512 C21.312858,3.33407672 22.3697745,2.9294454 23.3369896,2.35613644 C22.9694089,3.49592925 22.2001219,4.46411938 21.1724558,5.07935399 C22.1484461,4.9643022 23.102011,4.70299811 24,4.30421688 C23.3389397,5.29483236 22.5062767,6.15772084 21.5429616,6.85485674 Z" id="path-1"></path>
    </defs>
    <g id="icon/twitter-white" stroke="none" stroke-width="1" fill="none" fill-rule="evenodd">
        <mask id="mask-2" fill="white">
            <use xlink:href="#path-1"></use>
        </mask>
        <use id="Mask" fill="#1D9BF0" fill-rule="nonzero" xlink:href="#path-1"></use>
        <g id="colour/white" mask="url(#mask-2)" fill="#FFFFFF">
            <rect id="Rectangle" x="0" y="0" width="24" height="24"></rect>
        </g>
    </g>
</svg>