<?xml version="1.0" encoding="UTF-8"?>
<svg width="24px" height="24px" viewBox="0 0 24 24" version="1.1" xmlns="http://www.w3.org/2000/svg" xmlns:xlink="http://www.w3.org/1999/xlink">
    <title>icon/twitter-white</title>
    <defs>
        <path d="M24,4.30815968 C23.1152678,4.70095861 22.1669394,4.96469476 21.1699791,5.08440483 C22.1875147,4.47463139 22.9693709,3.50946889 23.335983,2.36100058 C22.3857843,2.92401192 21.3289689,3.33364496 20.2085573,3.55436017 C19.3107317,2.59667956 18.0313303,2 16.6153846,2 C13.8957215,2 11.6904374,4.20341337 11.6904374,6.92307692 C11.6904374,7.30839349 11.7353286,7.68435783 11.8194997,8.04535889 C7.7269114,7.83960696 4.10007004,5.87935444 1.67032993,2.89969593 C1.24573313,3.62917897 1.00444263,4.47463139 1.00444263,5.37619815 C1.00444263,7.08393709 1.87234069,8.59153612 3.19476259,9.47626829 C2.38671957,9.45008147 1.627309,9.2274959 0.96329205,8.85901296 C0.96329205,8.87958825 0.96329205,8.90016354 0.96329205,8.92073883 C0.96329205,11.3074585 2.66167877,13.2957677 4.91185424,13.750292 C4.50035085,13.8625202 4.06453147,13.9223752 3.61561868,13.9223752 C3.29763855,13.9223752 2.98901113,13.8924477 2.68786559,13.8325927 C3.31634349,15.7872337 5.13444029,17.2144024 7.28735084,17.2536821 C5.60392789,18.5742341 3.48094485,19.3598315 1.17278468,19.3598315 C0.774374704,19.3598315 0.383446604,19.3373859 -1.77635684e-15,19.2906243 C2.17722693,20.6897358 4.76595735,21.5033898 7.54734629,21.5033898 C16.604162,21.5033898 21.5571665,14.0009352 21.5571665,7.49544048 C21.5571665,7.28220715 21.551555,7.06710298 21.5440731,6.85761035 C22.5054944,6.16366588 23.3397242,5.29576782 24,4.30815968 Z" id="path-1"></path>
    </defs>
    <g id="icon/twitter-white" stroke="none" stroke-width="1" fill="none" fill-rule="evenodd">
        <mask id="mask-2" fill="white">
            <use xlink:href="#path-1"></use>
        </mask>
        <use id="Mask" fill="#FFFFFF" fill-rule="nonzero" xlink:href="#path-1"></use>
    </g>
</svg>