<?xml version="1.0" encoding="UTF-8"?>
<svg width="24px" height="24px" viewBox="0 0 24 24" version="1.1" xmlns="http://www.w3.org/2000/svg" xmlns:xlink="http://www.w3.org/1999/xlink">
    <title>icon/wallet</title>
    <g id="icon/wallet" stroke="none" stroke-width="1" fill="none" fill-rule="evenodd">
        <path d="M18.0233377,1.04681568 C19.6370754,0.752988241 20.4130853,1.84226414 20.3513674,4.31464337 C8.02295117,4.82657095 1.85874306,5.17029329 1.85874306,5.34581039 C1.85874306,5.60908604 2.38591169,6.1063899 2.93098686,6.1063899 L20,6.1063899 C21.6568542,6.1063899 23,7.44953565 23,9.1063899 L23,20.4937646 C23,22.0933972 21.9826535,23 20.9931379,23 L2.93098686,23 C1.97227054,23 1,22.2306417 1,20.9119481 L1,6.1063899 C1,4.30017548 1.32566527,4.03070028 2.38591169,3.65372594 C2.9160349,3.46523877 6.22023978,2.92369649 9.69448967,2.37418337 L10.8138661,2.19770408 C13.9217187,1.70907931 16.9427098,1.24357513 18.0233377,1.04681568 Z M19,13 C17.8954305,13 17,13.8954305 17,15 C17,16.1045695 17.8954305,17 19,17 C20.1045695,17 21,16.1045695 21,15 C21,13.8954305 20.1045695,13 19,13 Z" id="Combined-Shape" fill="#000000"></path>
    </g>
</svg>