<?xml version="1.0" encoding="UTF-8"?>
<svg width="35px" height="35px" viewBox="0 0 35 35" version="1.1" xmlns="http://www.w3.org/2000/svg" xmlns:xlink="http://www.w3.org/1999/xlink">
    <title>icon/spiked-circle/grey/35px</title>
    <g id="icon/spiked-circle/grey/35px" stroke="none" stroke-width="1" fill="none" fill-rule="evenodd">
        <path d="M17.5,0 L18.8285503,11.2496623 L24.6178913,1.51295449 L21.2559325,12.3304025 L30.5050344,5.79021439 L23.0338798,14.305013 L34.143489,12.0922026 L23.854969,16.8320658 L34.9041332,19.3292481 L23.5772264,19.4746105 L32.6554446,26.25 L22.2486761,21.7757271 L27.7862419,31.6577974 L20.0990366,23.3375317 L21.1384546,34.617583 L17.5,23.889974 L13.8615454,34.617583 L14.9009634,23.3375317 L7.21375808,31.6577974 L12.7513239,21.7757271 L2.34455543,26.25 L11.4227736,19.4746105 L0.0958668311,19.3292481 L11.145031,16.8320658 L0.856510965,12.0922026 L11.9661202,14.305013 L4.49496555,5.79021439 L13.7440675,12.3304025 L10.3821087,1.51295449 L16.1714497,11.2496623 L17.5,0 Z M17.5,5.969 L16.8666188,11.3317596 L16.6245633,13.3813941 L15.5697732,11.6074127 L12.809,6.965 L14.4125281,12.1226514 L15.0250608,14.0935385 L13.3399188,12.9019476 L8.93,9.784 L12.4922893,13.8433356 L13.8534978,15.394691 L11.8293804,14.9915276 L6.531,13.936 L11.4379292,16.1962902 L13.3124482,17.0598706 L11.2993435,17.5148452 L6.032,18.705 L11.4317563,18.7746682 L13.4954643,18.8011525 L11.8414565,20.035596 L7.513,23.265 L12.4748377,21.1326444 L14.370901,20.3174534 L13.3619831,22.1179192 L10.721,26.829 L14.3868154,22.8625034 L15.7873874,21.346591 L15.5980104,23.4017622 L15.102,28.779 L16.837091,23.6651369 L17.5,21.710618 L18.162909,23.6651369 L19.897,28.779 L19.4019896,23.4017622 L19.2126126,21.346591 L20.6131846,22.8625034 L24.278,26.829 L21.6380169,22.1179192 L20.629099,20.3174534 L22.5251623,21.1326444 L27.486,23.265 L23.1585435,20.035596 L21.5045357,18.8011525 L23.5682437,18.7746682 L28.967,18.705 L23.7006565,17.5148452 L21.6875518,17.0598706 L23.5620708,16.1962902 L28.468,13.936 L23.1706196,14.9915276 L21.1465022,15.394691 L22.5077107,13.8433356 L26.069,9.784 L21.6600812,12.9019476 L19.9749392,14.0935385 L20.5874719,12.1226514 L22.19,6.965 L19.4302268,11.6074127 L18.3754367,13.3813941 L18.1333812,11.3317596 L17.5,5.969 Z" id="Star" fill="#757574" fill-rule="nonzero"></path>
    </g>
</svg>