<?xml version="1.0" encoding="UTF-8"?>
<svg width="24px" height="24px" viewBox="0 0 24 24" version="1.1" xmlns="http://www.w3.org/2000/svg" xmlns:xlink="http://www.w3.org/1999/xlink">
    <title>icon/spiked-circle/black/24px</title>
    <g id="icon/spiked-circle/black/24px" stroke="none" stroke-width="1" fill="none" fill-rule="evenodd">
        <path d="M12,0 L12.9110059,7.71405415 L16.8808397,1.03745451 L14.5754965,8.45513313 L20.9177379,3.97043272 L15.7946604,9.80915179 L23.4126782,8.29179607 L16.357693,11.541988 L23.9342627,13.2543416 L16.1672409,13.3540187 L22.3923048,18 L15.256235,14.9319272 L19.053423,21.7082039 L13.7821965,16.0028789 L14.4949403,23.7377712 L12,16.3816964 L9.50505971,23.7377712 L10.2178035,16.0028789 L4.94657697,21.7082039 L8.74376497,14.9319272 L1.60769515,18 L7.83275906,13.3540187 L0.0657372556,13.2543416 L7.64230696,11.541988 L0.587321804,8.29179607 L8.20533958,9.80915179 L3.08226209,3.97043272 L9.42450346,8.45513313 L7.11916028,1.03745451 L11.0889941,7.71405415 L12,0 Z M12,5.73216 L11.7563564,7.79286757 L11.5239831,9.76051667 L10.5113846,8.0574945 L9.44928,6.27168 L10.0662256,8.25569207 L10.654257,10.1477437 L9.0365207,9.00381644 L7.33824,7.80192 L8.71046191,9.36594142 L10.0172221,10.8552426 L8.07406931,10.4682057 L6.03456,10.06176 L7.92348927,10.9316434 L9.72302748,11.7606805 L7.79044699,12.1974562 L5.76384,12.65472 L7.84138238,12.682074 L9.82254211,12.707499 L8.23469464,13.8925647 L6.56832,15.13536 L8.47833825,14.3145678 L10.298559,13.5319844 L9.32999778,15.2604315 L8.3136,17.07264 L9.72422143,15.5468518 L11.0687705,14.0915758 L10.8869686,16.0645401 L10.69536,18.1344 L11.3636074,16.1658528 L12,14.2895147 L12.6363926,16.1658528 L13.30368,18.1344 L13.1130314,16.0645401 L12.9312295,14.0915758 L14.2757786,15.5468518 L15.68544,17.07264 L14.6700022,15.2604315 L13.701441,13.5319844 L15.5216618,14.3145678 L17.43072,15.13536 L15.7653054,13.8925647 L14.1774579,12.707499 L16.1586176,12.682074 L18.2352,12.65472 L16.209553,12.1974562 L14.2769725,11.7606805 L16.0765107,10.9316434 L17.96448,10.06176 L15.9259307,10.4682057 L13.9827779,10.8552426 L15.2895381,9.36594142 L16.6608,7.80192 L14.9634793,9.00381644 L13.345743,10.1477437 L13.9337744,8.25569207 L14.54976,6.27168 L13.4886154,8.0574945 L12.4760169,9.76051667 L12.2436436,7.79286757 L12,5.73216 Z" id="Star" fill="#000000" fill-rule="nonzero"></path>
    </g>
</svg>