<?xml version="1.0" encoding="UTF-8"?>
<svg width="25px" height="25px" viewBox="0 0 25 25" version="1.1" xmlns="http://www.w3.org/2000/svg" xmlns:xlink="http://www.w3.org/1999/xlink">
    <title>icon/spiked-circle/black/25px</title>
    <g id="icon/spiked-circle/black/25px" stroke="none" stroke-width="1" fill="none" fill-rule="evenodd">
        <path d="M12.5,0 L13.4489645,8.03547307 L17.584208,1.08068178 L15.1828089,8.80743034 L21.7893103,4.13586742 L16.4527713,10.2178664 L24.3882065,8.63728757 L17.0392636,12.0229042 L24.9315237,13.8066058 L16.840876,13.9104361 L23.3253175,18.75 L15.8919115,15.5540908 L19.8473157,22.6127124 L14.3564547,16.6696655 L15.0988961,24.726845 L12.5,17.0642671 L9.90110386,24.726845 L10.6435453,16.6696655 L5.15268435,22.6127124 L9.10808851,15.5540908 L1.67468245,18.75 L8.15912402,13.9104361 L0.0684763079,13.8066058 L7.96073642,12.0229042 L0.611793546,8.63728757 L8.54722873,10.2178664 L3.21068968,4.13586742 L9.8171911,8.80743034 L7.41579196,1.08068178 L11.5510355,8.03547307 L12.5,0 Z M12.5,5.971 L12.2462046,8.11757039 L12.0041491,10.1672049 L10.949359,8.39322344 L9.843,6.533 L10.4856516,8.59967923 L11.0981844,10.5705663 L9.4130424,9.37897546 L7.644,8.127 L9.07339782,9.75618897 L10.4346063,11.3075444 L8.41048886,10.904381 L6.286,10.481 L8.25363466,11.3871286 L10.1281536,12.2507089 L8.11504895,12.7056835 L6.004,13.182 L8.16810664,13.2104937 L10.2318147,13.2369781 L8.57780691,14.4714215 L6.842,15.766 L8.83160234,14.9110081 L10.7276656,14.0958171 L9.71874769,15.8962828 L8.66,17.784 L10.1293973,16.1946372 L11.5299692,14.6787248 L11.3405923,16.733896 L11.141,18.89 L11.837091,16.83943 L12.5,14.8849112 L13.162909,16.83943 L13.858,18.89 L13.6594077,16.733896 L13.4700308,14.6787248 L14.8706027,16.1946372 L16.339,17.784 L15.2812523,15.8962828 L14.2723344,14.0958171 L16.1683977,14.9110081 L18.157,15.766 L16.4221931,14.4714215 L14.7681853,13.2369781 L16.8318934,13.2104937 L18.995,13.182 L16.884951,12.7056835 L14.8718464,12.2507089 L16.7463653,11.3871286 L18.713,10.481 L16.5895111,10.904381 L14.5653937,11.3075444 L15.9266022,9.75618897 L17.355,8.127 L15.5869576,9.37897546 L13.9018156,10.5705663 L14.5143484,8.59967923 L15.156,6.533 L14.050641,8.39322344 L12.9958509,10.1672049 L12.7537954,8.11757039 L12.5,5.971 Z" id="Star" fill="#000000" fill-rule="nonzero"></path>
    </g>
</svg>