<?xml version="1.0" encoding="UTF-8"?>
<svg width="45px" height="45px" viewBox="0 0 45 45" version="1.1" xmlns="http://www.w3.org/2000/svg" xmlns:xlink="http://www.w3.org/1999/xlink">
    <title>icon/spiked-circle/black/45px</title>
    <g id="icon/spiked-circle/black/45px" stroke="none" stroke-width="1" fill="none" fill-rule="evenodd">
        <path d="M22.5,0 L24.2081361,14.4638515 L31.6515745,1.9452272 L27.329056,15.8533746 L39.2207586,7.44456136 L29.6149883,18.3921596 L43.8987716,15.5471176 L30.6706744,21.6412275 L44.8767426,24.8518904 L30.3135768,25.038785 L41.9855716,33.75 L28.6054407,27.9973635 L35.7251682,40.7028824 L25.8416184,30.0053979 L27.178013,44.508321 L22.5,30.7156808 L17.821987,44.508321 L19.1583816,30.0053979 L9.27483182,40.7028824 L16.3945593,27.9973635 L3.01442841,33.75 L14.6864232,25.038785 L0.123257354,24.8518904 L14.3293256,21.6412275 L1.10122838,15.5471176 L15.3850117,18.3921596 L5.77924143,7.44456136 L17.670944,15.8533746 L13.3484255,1.9452272 L20.7918639,14.4638515 L22.5,0 Z M22.5,7.672 L21.6856527,14.5694052 L21.3744385,17.2046496 L20.0182798,14.9238163 L16.469,8.954 L18.5303932,15.586266 L19.3179354,18.1202638 L17.1513242,16.5882183 L11.482,12.579 L16.0615148,17.7985743 L17.8116401,19.7931741 L15.2092033,19.2748211 L8.398,17.917 L14.705909,20.8238017 L17.1160048,21.9341193 L14.5277274,22.5190867 L7.756,24.049 L14.6979723,24.1388591 L17.3513112,24.1729104 L15.2247298,25.7600519 L9.66,29.913 L16.0390771,27.1705428 L18.4768727,26.1224401 L17.1796926,28.4373246 L13.784,34.495 L18.4973341,29.3946473 L20.2980695,27.4456169 L20.0545848,30.0879799 L19.417,37.001 L21.6476885,30.4266046 L22.5,27.9136517 L23.3523115,30.4266046 L25.582,37.001 L24.9454152,30.0879799 L24.7019305,27.4456169 L26.5026659,29.3946473 L31.215,34.495 L27.8203074,28.4373246 L26.5231273,26.1224401 L28.9609229,27.1705428 L35.339,29.913 L29.7752702,25.7600519 L27.6486888,24.1729104 L30.3020277,24.1388591 L37.243,24.049 L30.4722726,22.5190867 L27.8839952,21.9341193 L30.294091,20.8238017 L36.601,17.917 L29.7907967,19.2748211 L27.1883599,19.7931741 L28.9384852,17.7985743 L33.517,12.579 L27.8486758,16.5882183 L25.6820646,18.1202638 L26.4696068,15.586266 L28.53,8.954 L24.9817202,14.9238163 L23.6255615,17.2046496 L23.3143473,14.5694052 L22.5,7.672 Z" id="Star" fill="#000000" fill-rule="nonzero"></path>
    </g>
</svg>