<?xml version="1.0" encoding="UTF-8"?>
<svg width="65px" height="65px" viewBox="0 0 65 65" version="1.1" xmlns="http://www.w3.org/2000/svg" xmlns:xlink="http://www.w3.org/1999/xlink">
    <title>icon/spiked-circle/black/65px</title>
    <g id="icon/spiked-circle/black/65px" stroke="none" stroke-width="1" fill="none" fill-rule="evenodd">
        <path d="M32.5,0 L34.9673077,20.89223 L45.7189409,2.80977263 L39.4753031,22.8993189 L56.6522068,10.7532553 L42.7772053,26.5664528 L63.4093368,22.4569477 L44.3020853,31.2595508 L64.8219616,35.8971751 L43.7862775,36.1671339 L60.6458256,48.75 L41.3189699,40.4406361 L51.6030207,58.7930523 L37.3267822,43.3411303 L39.25713,64.289797 L32.5,44.3670945 L25.74287,64.289797 L27.6732178,43.3411303 L13.3969793,58.7930523 L23.6810301,40.4406361 L4.35417438,48.75 L21.2137225,36.1671339 L0.178038401,35.8971751 L20.6979147,31.2595508 L1.59066322,22.4569477 L22.2227947,26.5664528 L8.34779317,10.7532553 L25.5246969,22.8993189 L19.2810591,2.80977263 L30.0326923,20.89223 L32.5,0 Z M32.5,11.085 L31.3237206,21.0446964 L30.874189,24.8511605 L28.915293,21.5566235 L23.79,12.936 L26.7661236,22.5134954 L27.9036844,26.1737143 L24.774135,23.9607598 L16.582,18.167 L23.1999659,25.7090517 L25.7279246,28.5901404 L21.9688492,27.8414083 L12.131,25.882 L21.2418686,30.0788247 L24.7231181,31.6826168 L20.9844951,32.5275696 L11.201,34.738 L21.2304045,34.8672409 L25.0630051,34.9164261 L21.9912764,37.2089639 L13.952,43.208 L23.1675558,39.2463396 L26.6888162,37.7324134 L24.8151115,41.0761356 L19.913,49.823 L26.7183715,42.458935 L29.3194337,39.6436689 L28.9677336,43.4604155 L28.047,53.446 L31.2688834,43.9495399 L32.5,40.3197192 L33.7311166,43.9495399 L36.952,53.446 L36.0322664,43.4604155 L35.6805663,39.6436689 L38.2816285,42.458935 L45.086,49.823 L40.1848885,41.0761356 L38.3111838,37.7324134 L41.8324442,39.2463396 L51.047,43.208 L43.0087236,37.2089639 L39.9369949,34.9164261 L43.7695955,34.8672409 L53.798,34.738 L44.0155049,32.5275696 L40.2768819,31.6826168 L43.7581314,30.0788247 L52.868,25.882 L43.0311508,27.8414083 L39.2720754,28.5901404 L41.8000341,25.7090517 L48.417,18.167 L40.225865,23.9607598 L37.0963156,26.1737143 L38.2338764,22.5134954 L41.209,12.936 L36.084707,21.5566235 L34.125811,24.8511605 L33.6762794,21.0446964 L32.5,11.085 Z" id="Star" fill="#000000" fill-rule="nonzero"></path>
    </g>
</svg>